<?xml version="1.0" encoding="UTF-8" ?>
<!DOCTYPE svg PUBLIC "-//W3C//DTD SVG 1.1//EN" "http://www.w3.org/Graphics/SVG/1.1/DTD/svg11.dtd">
<svg width="60pt" height="56pt" viewBox="0 0 60 56" version="1.1" xmlns="http://www.w3.org/2000/svg">
<g id="#fdfdfdfd">
<path fill="#fdfdfd" opacity="1.00" d=" M 29.46 4.58 C 31.35 1.62 34.68 0.69 38.02 1.56 C 40.12 3.14 42.41 6.01 40.96 8.71 C 39.36 11.94 34.36 12.85 34.39 16.94 C 34.73 20.21 36.77 23.00 37.85 26.06 C 41.44 25.62 44.28 23.23 47.64 22.12 C 47.83 23.78 47.28 25.08 45.97 26.00 C 43.06 28.02 39.70 29.26 36.57 30.89 C 34.69 28.48 33.71 25.58 32.81 22.71 C 30.73 26.48 29.27 30.59 28.09 34.73 C 31.71 37.08 35.56 39.05 39.41 41.00 C 40.03 45.92 38.83 51.64 34.02 54.09 C 34.90 50.52 35.71 46.92 35.79 43.21 C 32.85 41.46 29.92 39.71 26.82 38.26 C 25.99 40.56 25.89 43.29 24.05 45.09 C 20.94 48.31 17.20 50.84 13.62 53.51 C 12.98 53.54 11.70 53.59 11.05 53.62 C 13.41 48.32 20.71 47.30 22.45 41.59 C 23.43 38.80 24.94 36.08 25.40 33.17 C 23.32 29.63 21.57 25.88 20.21 22.01 C 19.90 20.00 22.19 19.44 23.46 18.48 C 26.58 16.43 30.50 15.96 33.47 13.68 C 34.09 11.86 31.70 11.28 30.79 10.12 C 28.83 8.96 29.73 6.44 29.46 4.58 M 24.14 22.01 C 24.77 24.23 25.94 26.25 26.92 28.33 C 27.95 25.28 29.64 22.41 29.89 19.15 C 27.79 19.38 24.77 19.52 24.14 22.01 Z" />
</g>
</svg>
